<svg width="15" height="15" viewBox="0 0 15 15" fill="none" xmlns="http://www.w3.org/2000/svg">
<g id="ins_svgrepo.com" clip-path="url(#clip0_5_381)">
<g id="&#233;&#161;&#181;&#233;&#157;&#162;-1">
<g id="Brand">
<g id="ins_line">
<path id="&#229;&#189;&#162;&#231;&#138;&#182;" fill-rule="evenodd" clip-rule="evenodd" d="M10.3889 1C12.3832 1 14 2.61675 14 4.61111V10.3889C14 12.3832 12.3832 14 10.3889 14H4.61111C2.61675 14 1 12.3832 1 10.3889V4.61111C1 2.61675 2.61675 1 4.61111 1H10.3889ZM10.3889 2.44444H4.61111C3.4145 2.44444 2.44444 3.4145 2.44444 4.61111V10.3889C2.44444 11.5855 3.4145 12.5556 4.61111 12.5556H10.3889C11.5855 12.5556 12.5556 11.5855 12.5556 10.3889V4.61111C12.5556 3.4145 11.5855 2.44444 10.3889 2.44444ZM7.5 4.61111C9.09546 4.61111 10.3889 5.90451 10.3889 7.5C10.3889 9.09546 9.09546 10.3889 7.5 10.3889C5.90451 10.3889 4.61111 9.09546 4.61111 7.5C4.61111 5.90451 5.90451 4.61111 7.5 4.61111ZM7.5 6.05556C6.70223 6.05556 6.05556 6.70223 6.05556 7.5C6.05556 8.29777 6.70223 8.94444 7.5 8.94444C8.29777 8.94444 8.94444 8.29777 8.94444 7.5C8.94444 6.70223 8.29777 6.05556 7.5 6.05556ZM10.75 3.52778C11.1489 3.52778 11.4722 3.85113 11.4722 4.25C11.4722 4.64887 11.1489 4.97222 10.75 4.97222C10.3511 4.97222 10.0278 4.64887 10.0278 4.25C10.0278 3.85113 10.3511 3.52778 10.75 3.52778Z" fill="#4C63ED"/>
</g>
</g>
</g>
</g>
<defs>
<clipPath id="clip0_5_381">
<rect width="15" height="15" fill="white"/>
</clipPath>
</defs>
</svg>
