<svg width="15" height="15" viewBox="0 0 15 15" fill="none" xmlns="http://www.w3.org/2000/svg">
<g id="twitter_svgrepo.com">
<path id="Vector" fill-rule="evenodd" clip-rule="evenodd" d="M12.3642 2.44894C12.582 2.39731 12.7339 2.34655 12.8584 2.29325C13.0327 2.21854 13.1773 2.12904 13.4057 1.9783C13.5977 1.85162 13.8437 1.84059 14.0462 1.94958C14.2487 2.05857 14.375 2.26997 14.375 2.49994C14.375 3.17552 14.2908 3.72924 14.0959 4.21653C13.9319 4.62641 13.7015 4.95932 13.426 5.26233C13.3096 7.36428 12.7012 9.01497 11.771 10.2655C10.8069 11.5617 9.52411 12.3918 8.17192 12.8567C6.82367 13.3201 5.39913 13.4237 4.12292 13.2667C2.85509 13.1108 1.68314 12.6911 0.866268 12.0558C0.642568 11.8818 0.563932 11.579 0.674681 11.3182C0.785431 11.0573 1.05784 10.9036 1.33839 10.9437C2.14212 11.0585 2.9158 10.8758 3.55199 10.6145C3.42675 10.5464 3.30867 10.4727 3.19891 10.3967C2.61921 9.99534 2.15149 9.45053 1.94097 9.02947C1.85385 8.85528 1.85295 8.65034 1.93854 8.4754C1.98269 8.38509 2.04725 8.30815 2.12564 8.24947C1.27922 7.5509 0.937481 6.58472 0.937481 5.93744C0.937481 5.74498 1.02616 5.56325 1.17786 5.44481C1.24164 5.39501 1.31358 5.35873 1.38941 5.33688C1.32607 5.15142 1.27692 4.96404 1.23946 4.78263C1.07336 3.97834 1.0881 3.07055 1.26864 2.34836C1.33042 2.10122 1.53601 1.91632 1.78829 1.88098C2.04057 1.84565 2.28905 1.96696 2.41635 2.18762C3.08979 3.35492 4.33196 4.06842 5.48802 4.49108C6.03155 4.68979 6.53492 4.81642 6.91224 4.89427C6.99367 4.1314 7.20667 3.50228 7.53361 3.0026C7.96492 2.34335 8.56649 1.95331 9.21249 1.77939C10.3267 1.47945 11.563 1.82117 12.3642 2.44894ZM6.71774 6.13031C6.28955 6.04432 5.70106 5.89988 5.05881 5.66508C4.21055 5.35496 3.22554 4.87139 2.40044 4.12235C2.41521 4.26019 2.43617 4.39685 2.46363 4.52982C2.60191 5.1994 2.85886 5.5744 3.09199 5.69096C3.37712 5.83353 3.50926 6.16784 3.39866 6.46684C3.24891 6.87165 2.85504 6.90484 2.49718 6.8154C2.78501 7.2469 3.30234 7.67715 4.16523 7.82097C4.46284 7.87059 4.68254 8.12572 4.6874 8.4274C4.69227 8.72909 4.48092 8.99115 4.18506 9.05034L3.64102 9.15915C3.72424 9.23147 3.81436 9.3024 3.91042 9.3689C4.346 9.67047 4.78334 9.80053 5.1609 9.70615C5.44368 9.63547 5.73778 9.76959 5.86976 10.0295C6.00172 10.2894 5.93652 10.606 5.7126 10.7926C5.31015 11.1276 4.84014 11.3964 4.36909 11.6195C4.14796 11.7242 3.90082 11.8276 3.63242 11.9186C3.83885 11.9627 4.05365 11.9988 4.27547 12.0261C5.38209 12.1622 6.6138 12.0704 7.76555 11.6745C8.91336 11.28 9.9743 10.5866 10.768 9.51953C11.5606 8.4539 12.1137 6.97922 12.1879 4.97685C12.1937 4.8192 12.259 4.66959 12.3705 4.55804C12.6515 4.277 12.8838 3.95489 12.998 3.57147C12.7981 3.6338 12.573 3.68775 12.3049 3.73901C12.1014 3.7779 11.892 3.7135 11.7455 3.56707C11.2677 3.08924 10.3227 2.77502 9.53742 2.98642C9.16786 3.08591 8.83192 3.3013 8.57961 3.68694C8.32205 4.08068 8.12499 4.69406 8.12499 5.62497C8.12499 5.80183 8.05005 5.9704 7.9188 6.08891C7.60755 6.36984 7.08374 6.2038 6.71774 6.13031Z" fill="#4C63ED"/>
</g>
</svg>
