<svg width="14" height="15" viewBox="0 0 14 15" fill="none" xmlns="http://www.w3.org/2000/svg">
<path id="Vector" fill-rule="evenodd" clip-rule="evenodd" d="M12.0909 0.5C13.1453 0.5 14 1.35473 14 2.40909V12.5909C14 13.6453 13.1453 14.5 12.0909 14.5H1.90909C0.854732 14.5 0 13.6453 0 12.5909V2.40909C0 1.35473 0.854732 0.5 1.90909 0.5H12.0909ZM12.0909 1.77273C12.4424 1.77273 12.7273 2.05764 12.7273 2.40909V12.5909C12.7273 12.9424 12.4424 13.2273 12.0909 13.2273H8.90909V8.77266H10.2303C10.5042 8.77266 10.7474 8.59741 10.834 8.33752L11.1159 7.49179C11.219 7.18271 10.9889 6.86357 10.6632 6.86357H8.90909V5.59086C8.90909 5.27268 9.22727 4.95449 9.54545 4.95449H10.8182C11.1696 4.95449 11.4545 4.66958 11.4545 4.31813V3.88159C11.4545 3.67603 11.3233 3.49174 11.1245 3.43928C10.2903 3.21915 9.54545 3.21915 9.54545 3.21915C7.95455 3.21915 7 4.31813 7 5.27268V6.86357H5.72727C5.37582 6.86357 5.09091 7.14847 5.09091 7.49994V8.1363C5.09091 8.48776 5.37582 8.77266 5.72727 8.77266H7V13.2273H1.90909C1.55764 13.2273 1.27273 12.9424 1.27273 12.5909V2.40909C1.27273 2.05764 1.55764 1.77273 1.90909 1.77273H12.0909Z" fill="#4C63ED"/>
</svg>
