<svg width="16" height="15" viewBox="0 0 16 15" fill="none" xmlns="http://www.w3.org/2000/svg">
<g id="web_svgrepo.com">
<path id="Vector" fill-rule="evenodd" clip-rule="evenodd" d="M6.65194 12.1559C6.78577 12.3889 6.91978 12.5987 7.04788 12.7847C5.68688 12.5005 4.50592 11.7746 3.68872 10.7777C4.22805 10.4956 4.91883 10.2033 5.74927 9.98936C5.9853 10.8489 6.31828 11.575 6.65194 12.1559ZM7.68138 11.6461C7.3915 11.1415 7.101 10.5113 6.8917 9.7646C7.34227 9.70249 7.82325 9.66667 8.33339 9.66667C8.84346 9.66667 9.32444 9.70249 9.77492 9.76453C9.56562 10.5113 9.27512 11.1415 8.98525 11.6461C8.75285 12.0508 8.5213 12.3738 8.33331 12.6102C8.14532 12.3738 7.91378 12.0508 7.68138 11.6461ZM6.58331 7.5C6.58331 7.92185 6.61388 8.32225 6.66778 8.70026C7.18757 8.62623 7.74329 8.58333 8.33339 8.58333C8.92341 8.58333 9.47914 8.62616 9.99885 8.70026C10.0527 8.32218 10.0833 7.92185 10.0833 7.5C10.0833 7.07815 10.0527 6.67782 9.99885 6.29974C9.47914 6.37377 8.92341 6.41667 8.33339 6.41667C7.74329 6.41667 7.18757 6.37377 6.66778 6.29974C6.61388 6.67775 6.58331 7.07815 6.58331 7.5ZM5.52311 6.07636C5.45536 6.52341 5.41665 6.99834 5.41665 7.5C5.41665 8.00166 5.45536 8.47659 5.52311 8.92364C4.53261 9.17057 3.7124 9.51875 3.07806 9.85379C2.70763 9.14204 2.49998 8.34356 2.49998 7.5C2.49998 6.65644 2.70763 5.85798 3.07805 5.14619C3.71232 5.48119 4.53255 5.8294 5.52311 6.07636ZM6.8917 5.23544C7.34227 5.29753 7.82325 5.33333 8.33339 5.33333C8.84346 5.33333 9.32444 5.29753 9.77492 5.23545C9.56562 4.48873 9.27512 3.8585 8.98525 3.35387C8.75285 2.94923 8.5213 2.62613 8.33331 2.38979C8.14532 2.62613 7.91378 2.94923 7.68138 3.35385C7.3915 3.85849 7.101 4.48872 6.8917 5.23544ZM11.1435 6.07643C11.2112 6.52348 11.25 6.99842 11.25 7.5C11.25 8.00166 11.2112 8.47652 11.1435 8.92357C12.134 9.17057 12.9542 9.51875 13.5886 9.85379C13.959 9.14197 14.1666 8.34348 14.1666 7.5C14.1666 6.65652 13.959 5.85801 13.5886 5.14623C12.9543 5.48122 12.1341 5.82943 11.1435 6.07643ZM12.9779 4.2224C12.4385 4.50445 11.7478 4.79676 10.9174 5.0107C10.6813 4.15108 10.3484 3.425 10.0147 2.84406C9.88086 2.61111 9.74685 2.40129 9.61875 2.21528C10.9798 2.4995 12.1608 3.22543 12.9779 4.2224ZM5.74926 5.01068C4.91888 4.79673 4.22812 4.50442 3.68873 4.22236C4.50592 3.22541 5.68689 2.4995 7.0478 2.21528C6.91978 2.40129 6.78577 2.6111 6.65194 2.84405C6.31828 3.42498 5.9853 4.15106 5.74926 5.01068ZM10.9174 9.98928C10.6813 10.8489 10.3484 11.575 10.0147 12.1559C9.88086 12.3889 9.74685 12.5987 9.61875 12.7847C10.9798 12.5005 12.1608 11.7745 12.978 10.7776C12.4386 10.4956 11.7478 10.2033 10.9174 9.98928ZM8.33331 14C12.1993 14 15.3333 11.0899 15.3333 7.5C15.3333 3.91015 12.1993 1 8.33331 1C4.46732 1 1.33331 3.91015 1.33331 7.5C1.33331 11.0899 4.46732 14 8.33331 14Z" fill="#4C63ED"/>
</g>
</svg>
